# xmcd
# 
# Track frame offsets:
#     150
#     19804
#     36547
#     53142
#     70126
#     91385
#     111105
#     129207
#     143316
#     159806
#     176034
#     191174
#     207091
#     221252
#     238292
#     253571
#     263425
#     283937
#     297515
#     313400
# 
# Disc length: 4399
# 
# Revision: 2
# Processed by: cddbd v1.5.2PL0 Copyright (c) Steve Scherf et al.
# Submitted via: fre:ac v1.0.31
# 
DISCID=2a112d14
DTITLE=Various Artist - Die Ultimative Chart Show - Die erfolgreichsten Sängerinnen des neuen Jahrtausends  - CD1
DYEAR=2013
DGENRE=Pop
TTITLE0=Lady Gaga - Bad Romance
TTITLE1=Madonna - Girl Gone Wild
TTITLE2=Katy Perry - Hot N Cold
TTITLE3=Alicia Keys - Girl On Fire
TTITLE4=Emeli Sandé - Read All About It, Pt. III
TTITLE5=Leona Lewis - Bleeding Love
TTITLE6=Christina Aguilera - Beautiful
TTITLE7=Shakira - She Wolf
TTITLE8=Keri Hilson - I Like
TTITLE9=Nelly Furtado - Say It Right
TTITLE10=Anastacia - Paid My Dues
TTITLE11=Ellie Goulding - Lights
TTITLE12=Gabriella Cilmi - Sweet About Me
TTITLE13=Caro Emerald - A Night Like This
TTITLE14=Aura Dione - I Will Love You Monday (365)
TTITLE15=Emiliana Torrini - Jungle Drum
TTITLE16=Lykke Li - I Follow Rivers (The Magician Remix)
TTITLE17=Loreen - Euphoria
TTITLE18=Nicki Minaj - Starships
TTITLE19=Jennifer Lopez - On The Floor
EXTD=
EXTT0=
EXTT1=
EXTT2=
EXTT3=
EXTT4=
EXTT5=
EXTT6=
EXTT7=
EXTT8=
EXTT9=
EXTT10=
EXTT11=
EXTT12=
EXTT13=
EXTT14=
EXTT15=
EXTT16=
EXTT17=
EXTT18=
EXTT19=
PLAYORDER=
